<?xml version="1.0" encoding="utf-8"?>
<!-- Generator: Adobe Illustrator 18.0.0, SVG Export Plug-In . SVG Version: 6.00 Build 0)  -->
<!DOCTYPE svg PUBLIC "-//W3C//DTD SVG 1.1//EN" "http://www.w3.org/Graphics/SVG/1.1/DTD/svg11.dtd">
<svg version="1.1" id="Layer_1" xmlns="http://www.w3.org/2000/svg" xmlns:xlink="http://www.w3.org/1999/xlink" x="0px" y="0px"
	 viewBox="0 0 200 74" enable-background="new 0 0 200 74" xml:space="preserve">
<g>
	<g>
		<path fill="#EAEAEA" d="M100,1.9c-19.4,0-35.2,15.8-35.2,35.2c0,19.4,15.8,35.2,35.2,35.2c19.4,0,35.2-15.8,35.2-35.2
			C135.2,17.6,119.4,1.9,100,1.9z M100,63.9c-14.8,0-26.8-12-26.8-26.8c0-14.8,12-26.8,26.8-26.8c14.8,0,26.8,12,26.8,26.8
			C126.8,51.9,114.8,63.9,100,63.9z"/>
		<g>
			<path fill="#EAEAEA" d="M115.3,27.8c-0.2-0.4-0.6-0.8-1.1-0.8H85.8c-0.6,0-1.1,0.5-1.2,1.1c-0.2,0.5,0.3,1.2,0.7,1.5L99.1,38
				v15.2c0,0.6,0.2,1.1,0.8,1.2c0.1,0,0.1,0,0.2,0c0.4,0,0.8-0.2,1.1-0.6l14.1-24.6C115.5,28.8,115.5,28.2,115.3,27.8z"/>
		</g>
	</g>
	<g>
		<path fill="#EAEAEA" d="M38.1,71V56h-33v-9.6L33.2,3h16.9v42h9v11h-9v15H38.1z M38.1,13.8L16.8,45h21.3V13.8z"/>
	</g>
	<g>
		<path fill="#EAEAEA" d="M174.1,71V56h-33v-9.6L169,3h17.1v42h9v11h-9v15H174.1z M174.1,13.8L152.7,45h21.4V13.8z"/>
	</g>
</g>
</svg>
