<?xml version="1.0" encoding="utf-8"?>
<!-- Generator: Adobe Illustrator 18.0.0, SVG Export Plug-In . SVG Version: 6.00 Build 0)  -->
<!DOCTYPE svg PUBLIC "-//W3C//DTD SVG 1.1//EN" "http://www.w3.org/Graphics/SVG/1.1/DTD/svg11.dtd">
<svg version="1.1" id="Layer_1" xmlns="http://www.w3.org/2000/svg" xmlns:xlink="http://www.w3.org/1999/xlink" x="0px" y="0px"
	 viewBox="0 0 200 74" enable-background="new 0 0 200 74" xml:space="preserve">
<g>
	<path fill="#EAEAEA" d="M89,1.9c-19.4,0-35.2,15.8-35.2,35.2c0,19.4,15.8,35.2,35.2,35.2c19.4,0,35.2-15.8,35.2-35.2
		C124.2,17.6,108.4,1.9,89,1.9z M89,63.9c-14.8,0-26.8-12-26.8-26.8c0-14.8,12-26.8,26.8-26.8c14.8,0,26.8,12,26.8,26.8
		C115.8,51.9,103.8,63.9,89,63.9z"/>
	<g>
		<path fill="#EAEAEA" d="M104.3,27.8c-0.2-0.4-0.6-0.8-1.1-0.8H74.8c-0.6,0-1.1,0.5-1.2,1.1c-0.2,0.5,0.3,1.2,0.7,1.5L88.1,38v15.2
			c0,0.6,0.2,1.1,0.8,1.2c0.1,0,0.1,0,0.2,0c0.4,0,0.8-0.2,1.1-0.6l14.1-24.6C104.5,28.8,104.5,28.2,104.3,27.8z"/>
	</g>
</g>
<g>
	<path fill="#EAEAEA" d="M163,1.9c-19.4,0-35.2,15.8-35.2,35.2c0,19.4,15.8,35.2,35.2,35.2c19.4,0,35.2-15.8,35.2-35.2
		C198.2,17.6,182.4,1.9,163,1.9z M163,63.9c-14.8,0-26.8-12-26.8-26.8c0-14.8,12-26.8,26.8-26.8c14.8,0,26.8,12,26.8,26.8
		C189.8,51.9,177.8,63.9,163,63.9z"/>
	<g>
		<path fill="#EAEAEA" d="M178.3,27.8c-0.2-0.4-0.6-0.8-1.1-0.8h-28.3c-0.6,0-1.1,0.5-1.2,1.1c-0.2,0.5,0.3,1.2,0.7,1.5l13.7,8.4
			v15.2c0,0.6,0.2,1.1,0.8,1.2c0.1,0,0.1,0,0.2,0c0.4,0,0.8-0.2,1.1-0.6l14.1-24.6C178.5,28.8,178.5,28.2,178.3,27.8z"/>
	</g>
</g>
<g>
	<path fill="#EAEAEA" d="M0,60.7l6.7-8c4.5,5.1,10.5,7.9,18,7.9c8.4,0,13.7-5.2,13.7-11.7c0-7.2-5.2-11.9-13.4-11.9
		c-5.7,0-10.4,1.8-14.6,5.8l-8.3-2.4V3h43.8v10.3H13.8v19.3c3.2-3.2,8.7-5.8,15.1-5.8c11.2,0,21.4,7.9,21.4,21.6
		c0,13.9-10.5,22.7-25.5,22.7C13.3,71.1,5.4,67.2,0,60.7z"/>
</g>
</svg>
